<?xml version="1.0" standalone="no"?><!DOCTYPE svg PUBLIC "-//W3C//DTD SVG 1.1//EN" "http://www.w3.org/Graphics/SVG/1.1/DTD/svg11.dtd"><svg t="1597141471610" class="icon" viewBox="0 0 1024 1024" version="1.1" xmlns="http://www.w3.org/2000/svg" p-id="2591" xmlns:xlink="http://www.w3.org/1999/xlink" width="25" height="25"><defs><style type="text/css"></style></defs><path d="M791.6 275.5l2.5-23.1c0.9-8.6-7.1-15.4-15.4-13.1l-29 8.1c-20.6-8.7-45.3-13.5-74.7-13.5-121 0-162.6 81.3-162.6 180.6v290.7c0 237.2 162.6 184.9 162.6 184.9s162.6 52.3 162.6-184.9V414.5c-0.1-55.8-13.1-105.8-46-139z" fill="#FF398A" p-id="2592"></path><path d="M806.8 282.9c-6.1-7.8-12.8-14.8-20.3-20.9l-1.7 16c36.4 34.9 46.3 88.5 46.3 136.5v290.7c0 81.3-19.1 136.5-56.8 164-43.1 31.5-96.8 15-97.3 14.8-1.3-0.4-2.7-0.4-4 0-0.5 0.2-54 16.8-97.2-14.7-37.8-27.5-56.9-82.7-56.9-164.1V414.5c0-79.4 27.1-174.1 156.1-174.1 29.9 0 54.3 5.1 74.2 13.9l18.7-5.2c-25.2-14.5-56.3-21.8-92.9-21.8-58.7 0-103.1 18.7-131.8 55.6-24.8 31.8-37.3 76-37.3 131.6v290.7c0 85.8 20.9 144.5 62.2 174.6 44.2 32.1 96 20.1 106.9 17.1 5 1.4 18.7 4.7 36.4 4.7 20.6 0 46.6-4.5 70.5-21.8 41.3-30.1 62.2-88.8 62.2-174.6V414.5c0-55.6-12.6-99.9-37.3-131.6z" fill="#2919BC" p-id="2593"></path><path d="M511.8 287.7l-2.9-38.1c-0.6-8.6 7.6-15.2 15.8-12.6l34.8 10.9" fill="#FF398A" p-id="2594"></path><path d="M643.3 233.9c-121 0-162.6 81.3-162.6 180.6v290.7c0 237.2 162.6 184.9 162.6 184.9s162.6 52.3 162.6-184.9V414.5c0-99.4-41.5-180.6-162.6-180.6z" fill="#FFFFFF" p-id="2595"></path><path d="M679.7 868.1c-15.5 0-27.1-3.3-28.2-3.6l-8.5-2.9-7.9 2.9c-1.2 0.4-12.8 3.6-28.1 3.6-25.2 0-45.9-8.3-61.5-24.8-11-11.6-19.7-27.4-26-47.1-7.8-24.5-11.7-55.1-11.7-91V414.5c0-23.4 2.5-44.7 7.5-63.1 5.1-18.9 12.7-35 22.7-47.8 10.5-13.5 23.6-23.6 39.8-30.7 18.1-7.9 40.2-12 65.6-12s47.5 4 65.6 12c16.2 7.1 29.2 17.1 39.8 30.7 10 12.9 17.7 29 22.7 47.8 4.9 18.5 7.5 39.7 7.5 63.1v290.7c0 35.8-3.9 66.4-11.7 91-6.2 19.7-15 35.5-26 47.1-15.8 16.4-36.5 24.8-61.6 24.8z" fill="#FFBBD7" p-id="2596"></path><path d="M775.1 282.9c-8.4-10.8-18.1-20-29.2-27.7l34.5-9.6c1.8-0.6 3.7-0.1 5.2 1.1 1.5 1.3 2.2 3.1 2 5l-3.7 34.4c-0.3 3.6 2.2 6.8 5.8 7.2h0.7c3.3 0 6.1-2.5 6.5-5.9l3.7-34.4c0.7-6.2-1.8-12.3-6.5-16.3S783 231.3 777 233l-35.2 9.9c-3.1 0.9-5 3.6-4.7 6.7-25.3-14.8-56.7-22.3-93.8-22.3-30.7 0-57.5 5.1-80.2 15.3-0.5-0.3-1.1-0.6-1.7-0.8l-34.8-10.9c-5.9-1.8-12.4-0.7-17.2 3.2-4.9 3.8-7.5 9.9-7 16.1l2.9 38.1c0.1 0.8 0.3 1.6 0.6 2.3-21.1 31.1-31.8 72.7-31.8 124v290.7c0 85.8 20.9 144.5 62.2 174.6 44.2 32.1 96 20.1 106.9 17.1 5 1.4 18.7 4.7 36.4 4.7 20.7 0 46.7-4.5 70.5-21.8 41.3-30.1 62.2-88.8 62.2-174.6V414.5c0.1-55.6-12.5-99.9-37.2-131.6z m-257.6-38.8c1.5-1.2 3.4-1.5 5.3-0.9l24.5 7.7c-11.2 6.8-21.1 15.1-29.8 24.9l-2-26.7c-0.3-2 0.5-3.8 2-5z m281.9 461.1c0 81.3-19.1 136.5-56.8 164-43.1 31.5-96.8 15-97.3 14.8-1.3-0.4-2.7-0.4-4 0-0.5 0.2-54 16.8-97.2-14.7-37.8-27.5-56.9-82.7-56.9-164.1V414.5c0-79.4 27.1-174.1 156.1-174.1s156.1 94.7 156.1 174.1v290.7z" fill="#2919BC" p-id="2597"></path><path d="M894.1 767.8c-40.5-5.1-56.6 16.4-56.6 16.4l22.3 9.7c9.2-5.1 22.9-5 33.3-3.6 6.6 0.9 12.5-4.2 12.7-10.9 0.2-6.5-5.2-10.8-11.7-11.6z" fill="#FF398A" p-id="2598"></path><path d="M822.4 784.2l-6.3 22.7s4.7 0.9 10.8 2.4c-0.4 1.3-3.8 14.9 0.8 26.2 9.7 23.8 52 21 53.3-10.2 1.2-28.6-38-37.8-58.6-41.1z" fill="#FF398A" p-id="2599"></path><path d="M894.9 761.4c-39.9-5-58.5 14.1-62 18.2-3-0.6-6.1-1.2-9.4-1.7-3.6-0.6-6.9 1.9-7.5 5.4-0.6 3.6 1.9 6.9 5.4 7.5 24.8 4 54.1 13.2 53.2 34.4-0.6 15.4-13.1 18.7-16.9 19.4-8.9 1.5-20-1.9-23.9-11.4-2.1-5.2-2.1-11.3-1.7-15.7 2.5 0.7 4.8 1.5 6.9 2.2 1.5 0.6 3 1.2 4.3 1.8-0.3 2.2-0.1 4.7 1.4 7 3 4.5 8.9 6 13.3 3.3 3.7-2.2 6.1-7.5 2.5-13.8-1.7-2.9-5.1-6.4-17.4-10.6-5.3-1.9-14.2-4.3-14.6-4.4-0.4-0.1-0.9-0.2-1.3-0.2-5.6-1.3-9.7-2.2-9.9-2.2-3.5-0.7-6.9 1.6-7.6 5.1s1.6 6.9 5.1 7.6l4.5 0.9c-0.8 6.1-1.1 15.4 2.4 23.8 5 12.3 17.3 19.9 31.3 19.9 2.2 0 4.5-0.2 6.9-0.5 16.2-2.9 27-15.3 27.7-31.7 0.4-9.2-2.6-19.9-14-29.2 5.4-0.7 11.8-0.6 18.6 0.3 4.9 0.6 10-0.8 13.8-4.1 3.9-3.3 6.2-8.1 6.3-13.1 0.3-9.4-6.9-16.9-17.4-18.2z m2.7 21.4c-0.6 0.5-1.9 1.3-3.7 1.1-8.4-1.1-24-2.2-35.7 3.5-3.2-1.4-6.6-2.7-10.4-3.9 6.9-5.1 21.2-12.3 45.6-9.2 0.6 0.1 6.1 0.9 6 5-0.2 1.8-1.2 3-1.8 3.5z" fill="#2919BC" p-id="2600"></path><path d="M652.9 840.8h-49.1c-39.8 0-72.4-32.6-72.4-72.4V519.3c0-53.3 43.6-96.9 96.9-96.9 53.3 0 96.9 43.6 96.9 96.9v249.1c0.1 39.8-32.5 72.4-72.3 72.4z" fill="#FF8ABF" p-id="2601"></path><path d="M674.9 285.6c8.3-0.1 16 2 23.2 6.2 6.4 3.8 12.2-6.2 5.8-9.9-8.9-5.2-18.7-7.8-29-7.8-7.4 0-7.4 11.5 0 11.5zM647.9 280.4h0.7c1.5 0 3-0.6 4.1-1.7 1-1 1.7-2.6 1.7-4.1-0.1-1.5-0.6-3-1.7-4.1-1.1-1-2.5-1.7-4.1-1.7h-0.7c-1.5 0-3 0.6-4.1 1.7-1 1-1.7 2.6-1.7 4.1 0.1 1.5 0.6 3 1.7 4.1 1.2 1 2.6 1.7 4.1 1.7z" fill="#FFFFFF" p-id="2602"></path><path d="M765.6 807.3c-0.9 0-1.8-0.2-2.7-0.6-3.3-1.5-4.7-5.4-3.2-8.6 11-23.9 12.6-66.2 12.7-68.4V589c0-3.6 2.9-6.5 6.5-6.5s6.5 2.9 6.5 6.5v141.1c-0.1 1.9-1.5 46.8-13.9 73.5-1.1 2.3-3.4 3.7-5.9 3.7zM778.9 565.1c-3.6 0-6.5-2.9-6.5-6.5V544c0-3.6 2.9-6.5 6.5-6.5s6.5 2.9 6.5 6.5v14.6c0 3.6-2.9 6.5-6.5 6.5z" fill="#2919BC" p-id="2603"></path><path d="M298 894.1c-2.4 0-4.8-0.3-7.2-0.8-8.4-1.9-15.4-6.9-19.9-14-4.3-6.9-5.6-15-3.7-22.8 45-184.7 44.4-331.6 36.1-422.4-8.9-96.4-28.1-150.2-28.3-150.7-2.8-7.6-2.4-15.8 1.1-23.1 3.6-7.6 10.1-13.2 18.2-16 3.4-1.1 6.8-1.7 10.4-1.7 13.3 0 25.2 8.2 29.7 20.4 0.9 2.4 22 61.1 31.6 165.7 5.6 60.7 6.2 124.8 1.9 190.5-5.4 81.8-18.7 166.4-39.4 251.4-3.3 13.8-15.9 23.5-30.5 23.5z" fill="#04A599" p-id="2604"></path><path d="M304.8 249.1c10.3 0 20 6.2 23.6 16.1 0.9 2.4 21.7 60.3 31.2 164 5.6 60.4 6.2 124.1 1.9 189.5-5.4 81.5-18.6 165.7-39.2 250.3-2.7 11.1-13 18.6-24.3 18.6-1.9 0-3.8-0.2-5.7-0.6-13.4-3-21.8-16-18.6-28.9 45.2-185.6 44.6-333.3 36.2-424.5-9-97.8-28.4-151.8-28.6-152.3-4.6-12.5 2.3-26.3 15.3-30.7 2.7-1.1 5.5-1.5 8.2-1.5m0-13c-4.2 0-8.4 0.7-12.4 2.1-9.8 3.3-17.6 10.2-22 19.3-4.3 8.9-4.8 18.9-1.4 28.1 0.2 0.5 19.1 53.9 27.9 149.1 8.3 90.3 8.9 236.4-35.9 420.2-2.3 9.5-0.7 19.4 4.5 27.7 5.4 8.6 13.9 14.7 24 16.9 2.8 0.6 5.7 1 8.6 1 17.7 0 32.9-11.7 36.9-28.5 20.8-85.3 34.1-170.3 39.6-252.5 4.4-66 3.7-130.5-1.9-191.5-9.7-105.4-31.1-164.8-32-167.3-5.5-14.7-19.9-24.6-35.9-24.6z" fill="#2919BC" p-id="2605"></path><path d="M298 894.1c-2.4 0-4.8-0.3-7.2-0.8-8.4-1.9-15.4-6.9-19.9-14-4.3-6.9-5.6-15-3.7-22.8 8.4-34.6 15.6-69.6 21.5-104.1 0.4-2.5 2.2-4.5 4.6-5.2 0.6-0.2 1.2-0.3 1.8-0.3 1.8 0 3.6 0.8 4.8 2.2 9.2 10.3 24 23.6 42.2 28.3 3.3 0.9 5.4 4.1 4.8 7.5-5.3 28.4-11.4 57.2-18.4 85.6-3.3 13.9-15.9 23.6-30.5 23.6z" fill="#AEFFCF" p-id="2606"></path><path d="M295.2 753.5c11 12.3 26.5 25.3 45.4 30.2-5.2 28.3-11.3 56.8-18.3 85.3-2.7 11.1-13 18.6-24.3 18.6-1.9 0-3.8-0.2-5.7-0.6-13.4-3-21.8-16-18.6-28.9 8.8-36.4 15.9-71.3 21.5-104.6m0-13c-1.2 0-2.4 0.2-3.6 0.5-4.8 1.4-8.4 5.4-9.2 10.3-5.8 34.3-13 69.2-21.4 103.6-2.3 9.5-0.7 19.4 4.5 27.7 5.4 8.6 13.9 14.7 24 16.9 2.8 0.6 5.7 1 8.6 1 17.7 0 32.9-11.7 36.9-28.5 7-28.5 13.2-57.5 18.4-86 1.2-6.7-2.9-13.2-9.5-15-16.6-4.3-30.3-16.7-39-26.3-2.5-2.7-6.1-4.2-9.7-4.2z" fill="#2919BC" p-id="2607"></path><path d="M292 858c7.5-31 13.8-60.8 19-89.6-6-4.7-11.3-9.9-15.8-14.9-5.6 33.3-12.7 68.2-21.6 104.5-3.2 12.9 5.2 25.9 18.6 28.9 1.9 0.4 3.8 0.6 5.7 0.6 3.2 0 6.3-0.6 9.2-1.7-11.3-4.2-18-16-15.1-27.8z" fill="#82E8AB" p-id="2608"></path><path d="M369.4 875.3c-16.3 0-29.7-11.9-31.1-27.7-11.7-131-48.6-216.3-87.7-306.6l-2.8-6.4C223 477 186.5 435.9 139.4 412.3c-2.2-1.1-3.7-1.8-4.8-2.5-18.3-11.5-23.5-27.6-14.1-43.1 5.6-9.2 15.4-14.3 27.6-14.3 8.4 0 17.6 2.5 26 7.1 8.9 4.9 88.3 50.3 131.9 151.1 26 60.1 47.8 119.5 64.7 176.6 21.8 73.4 25 93.5 30.5 154.7 1.5 16.7-10.7 31.2-27.9 33.2-0.3 0-0.5 0.1-0.8 0.1-1.1 0-2.1 0.1-3.1 0.1z" fill="#04A599" p-id="2609"></path><path d="M148.1 358.9c7.4 0 15.5 2.2 22.9 6.3 3 1.6 84.9 46 129 147.9 25.9 59.9 47.6 119.1 64.4 175.9 21.2 71.4 24.6 90.8 30.2 153.4 1.2 13-8.7 24.6-22.1 26.2-0.2 0-0.4 0-0.6 0.1-0.8 0.1-1.6 0.1-2.4 0.1-12.7 0-23.5-9.3-24.6-21.8-12.1-135.2-51.6-223.8-91-315-42.9-99.1-107.8-122.7-115.8-127.7-17.4-10.9-18.3-23.8-12-34.2 4.6-7.8 12.8-11.2 22-11.2m0-13c-14.3 0-26.4 6.3-33.1 17.4-5.3 8.7-6.8 18.1-4.3 27.1 2.6 9.6 9.5 18 20.5 24.9 1.4 0.9 3 1.7 5.3 2.8 17 8.5 68.9 34.5 105.4 119l2.8 6.4c38.9 89.8 75.5 174.6 87.2 304.6 0.8 9.3 5.2 17.9 12.3 24.2 6.9 6.1 15.9 9.5 25.3 9.5 1.2 0 2.4-0.1 3.6-0.2 0.3 0 0.6-0.1 0.9-0.1 9.8-1.1 18.7-5.9 25-13.3 6.4-7.6 9.5-17.2 8.6-27-5.8-65.2-9.9-85.6-30.7-155.9-17-57.3-38.8-117-64.9-177.4-44.5-102.8-125.6-149.2-134.7-154.2-9.6-5.1-19.6-7.8-29.2-7.8z" fill="#2919BC" p-id="2610"></path><path d="M233.9 894.1c-2.1 0-4.1-0.2-6.2-0.6-8.4-1.6-15.6-6.4-20.3-13.4-4.5-6.7-6.1-14.8-4.4-22.6 38.7-185.9 38.7-332.6 31.8-423-7.4-97.1-24.1-151.9-24.2-152.4-2.4-7.7-1.7-15.8 2.2-23 4-7.4 10.7-12.8 18.9-15.2 3-0.9 6-1.3 9.1-1.3 13.9 0 26 8.7 30.1 21.6 0.8 2.4 18.6 59.9 26.7 163.6 4.7 60.3 5.1 124.1 1.3 189.7-4.8 81.8-16.2 166.5-34 252-3.1 14.3-16 24.6-31 24.6z" fill="#04A599" p-id="2611"></path><path d="M240.8 249.1c10.7 0 20.7 6.7 23.9 17.1 0.7 2.4 18.4 59.2 26.4 162.2 4.7 60 5.1 123.5 1.3 188.8-4.8 81.4-16.2 165.9-33.9 251.1-2.4 11.4-12.8 19.3-24.5 19.3-1.6 0-3.3-0.2-4.9-0.5-13.5-2.6-22.3-15.3-19.6-28.3 38.9-186.6 38.8-334 32-424.8-7.5-98.4-24.4-153.3-24.5-153.8-4-12.7 3.5-26.1 16.7-30 2.2-0.8 4.7-1.1 7.1-1.1m0-13v13-13c-3.7 0-7.4 0.5-10.9 1.6-9.9 2.9-18 9.4-22.8 18.4-4.6 8.7-5.6 18.6-2.6 28 0.3 1 16.7 55.3 24 151 6.8 89.9 6.9 236-31.7 421.2-2 9.6-0.1 19.4 5.4 27.6 5.6 8.5 14.3 14.2 24.5 16.2 2.4 0.5 4.9 0.7 7.4 0.7 18 0 33.6-12.5 37.2-29.7 17.9-85.8 29.4-170.9 34.2-252.9 3.8-65.9 3.4-130-1.3-190.6-8.1-104.5-26.2-162.7-26.9-165.1-2.5-7.8-7.3-14.4-14.1-19.2-6.7-4.8-14.4-7.2-22.4-7.2z" fill="#2919BC" p-id="2612"></path><path d="M233.9 894.1c-2.1 0-4.1-0.2-6.2-0.6-8.4-1.6-15.6-6.4-20.3-13.4-4.5-6.7-6.1-14.8-4.4-22.6 6.7-32.1 12.5-64.6 17.3-96.6 0.3-2.3 1.9-4.3 4.1-5.1 0.8-0.3 1.5-0.4 2.3-0.4 1.5 0 3 0.5 4.1 1.5 13.9 11.4 28.6 18.1 43.9 20 1.8 0.2 3.3 1.1 4.4 2.5s1.5 3.2 1.2 4.9c-4.5 28.2-9.8 56.9-15.7 85.3-2.8 14.2-15.7 24.5-30.7 24.5z" fill="#AEFFCF" p-id="2613"></path><path d="M226.8 761.8c12.1 10 28 19.1 47.2 21.4-4.5 28.2-9.7 56.5-15.6 85-2.4 11.4-12.8 19.3-24.5 19.3-1.6 0-3.3-0.2-4.9-0.5-13.5-2.6-22.3-15.3-19.6-28.3 7-33.6 12.7-65.9 17.4-96.9m0-13c-1.6 0-3.1 0.3-4.7 0.9-4.4 1.7-7.5 5.6-8.2 10.2-4.8 31.8-10.6 64.2-17.3 96.2-2 9.6-0.1 19.4 5.4 27.6 5.6 8.5 14.3 14.2 24.5 16.2 2.4 0.5 4.9 0.7 7.4 0.7 18 0 33.6-12.5 37.2-29.7 5.9-28.4 11.2-57.2 15.7-85.6 0.6-3.5-0.3-7-2.5-9.9s-5.3-4.7-8.8-5.1c-14-1.7-27.7-8-40.6-18.6-2.2-1.9-5.1-2.9-8.1-2.9z" fill="#2919BC" p-id="2614"></path><path d="M266.7 826.2c-1.2 6.6-2.5 13.2-3.8 19.8 1.3-6.6 2.6-13.2 3.8-19.8zM262.4 848.5c-0.5 2.5-1 4.9-1.5 7.4 0.5-2.5 1-5 1.5-7.4zM225 886c1.3 0.5 2.6 0.9 4 1.1 1.7 0.3 3.3 0.5 4.9 0.5-1.6 0-3.3-0.2-4.9-0.5-1.4-0.3-2.7-0.7-4-1.1zM260.4 858.6c-0.6 3.2-1.3 6.3-1.9 9.5 0.6-3.2 1.3-6.3 1.9-9.5zM291.1 428.4c-8-103-25.6-159.8-26.4-162.2-4-12.7-18-19.9-31.2-16.1-0.6 0.2-1.2 0.4-1.7 0.6 7 2.6 12.6 8.1 15 15.5 0.7 2.4 18.4 59.2 26.4 162.2 4.7 60 5.1 123.5 1.3 188.8-3.1 52.9-9 107.1-17.6 162 5.4 1.9 11.2 3.4 17.3 4.1 9-56.2 15.1-111.8 18.3-166.1 3.7-65.3 3.2-128.8-1.4-188.8zM268.6 815.6c-0.5 3.1-1.1 6.1-1.7 9.2 0.6-3.1 1.2-6.1 1.7-9.2zM274.1 783.3c-0.6 3.5-1.1 6.9-1.7 10.4 0.5-3.5 1.1-7 1.7-10.4zM272.3 793.9c-1.1 6.9-2.3 13.8-3.6 20.8 1.3-6.9 2.5-13.8 3.6-20.8z" fill="#08C4B2" p-id="2615"></path><path d="M431.4 892c-13.1 0-25-8-29.5-20-22.1-57.9-37-128.1-44.2-208.7-5.7-63.7-6.7-134-3-209.2 6.3-127.6 23.8-223.8 24.6-227.8 2.7-14.6 15.7-25.2 31-25.2 1.8 0 3.7 0.2 5.5 0.5 8.5 1.4 15.8 6 20.6 13 4.6 6.6 6.4 14.6 4.9 22.5-0.2 1-17.6 97.1-23.7 220.6-7.9 161.9 7.1 297.9 43.4 393.1 2.9 7.6 2.6 15.8-0.8 23.1-3.5 7.6-9.9 13.4-18 16.2-3.5 1.2-7.1 1.9-10.8 1.9z" fill="#04A599" p-id="2616"></path><path d="M410.2 207.6c1.5 0 2.9 0.1 4.4 0.4 13.6 2.3 22.7 14.8 20.2 27.9-0.2 1.2-17.7 97.3-23.8 221.4-8 162.8 7.2 299.7 43.9 395.8 4.8 12.5-1.9 26.3-14.8 30.9-2.8 1-5.8 1.5-8.6 1.5-10.2 0-19.8-6-23.5-15.8-21.9-57.4-36.6-127-43.8-207-5.7-63.4-6.7-133.4-3-208.3 6.3-127.2 23.7-222.9 24.5-226.9 2-11.7 12.6-19.9 24.5-19.9m0-13v13-13c-18.4 0-34.1 12.8-37.4 30.5-0.7 4-18.4 100.6-24.7 228.6-3.7 75.5-2.7 146.2 3.1 210.1 7.3 81.2 22.3 152 44.6 210.5 5.5 14.4 19.8 24.1 35.6 24.1 4.4 0 8.8-0.7 13-2.2 9.7-3.4 17.4-10.4 21.7-19.6 4.1-9 4.5-19 1-28.2C431 754 416.1 619 424 458c6-123.1 23.4-218.8 23.6-219.7 1.8-9.6-0.4-19.4-6-27.4-5.8-8.3-14.7-13.9-24.8-15.6-2.2-0.5-4.4-0.7-6.6-0.7z" fill="#2919BC" p-id="2617"></path><path d="M454.9 853.1c-36.7-96.1-51.8-233-43.9-395.8 6.1-124.1 23.6-220.3 23.8-221.4 2.4-13.1-6.7-25.6-20.2-27.9-4.3-0.7-8.5-0.4-12.4 0.9 11.5 3.7 18.8 15.1 16.6 27-0.2 1.2-17.7 97.3-23.8 221.4-8 162.8 7.2 299.7 43.9 395.8 4.8 12.5-1.9 26.3-14.8 30.9-0.2 0.1-0.4 0.1-0.6 0.2 2.6 0.8 5.2 1.3 8 1.3 2.9 0 5.8-0.5 8.6-1.5 12.9-4.6 19.6-18.4 14.8-30.9z" fill="#08C4B2" p-id="2618"></path><path d="M434.3 895.7c-13.8 0-26.4-8.5-31.2-21.1-23.6-61.9-39.5-137-47.3-223.2-0.9-9.7-1.7-19.8-2.3-30-0.1-2 0.7-3.9 2.2-5.3 1.2-1.1 2.7-1.7 4.3-1.7 0.4 0 0.8 0 1.2 0.1 8.6 1.6 18.2 2.4 28.3 2.4 7.5 0 15.4-0.4 23.6-1.3h0.7c1.5 0 3 0.5 4.2 1.5 1.3 1.1 2.2 2.8 2.3 4.5 6.4 91.2 21.7 168.8 45.3 230.6 3 8 2.7 16.6-0.8 24.4-3.7 8-10.4 14.1-19 17.1-3.8 1.3-7.6 2-11.5 2z" fill="#AEFFCF" p-id="2619"></path><path d="M359.9 620.9c8.1 1.5 17.9 2.5 29.5 2.5 7.3 0 15.4-0.4 24.3-1.3 6.4 91.3 21.8 170 45.7 232.5 5.1 13.4-2 28.1-15.9 33.1-3 1.1-6.2 1.6-9.2 1.6-10.9 0-21.1-6.5-25.1-16.9-23.4-61.4-39.2-135.9-46.9-221.5-0.9-9.9-1.7-19.9-2.4-30m0-13c-3.2 0-6.3 1.2-8.7 3.3-3 2.7-4.6 6.6-4.3 10.6 0.7 10.2 1.5 20.4 2.4 30.2 7.8 86.8 23.9 162.5 47.7 225 5.8 15.1 20.7 25.2 37.3 25.2 4.6 0 9.2-0.8 13.6-2.3 10.2-3.6 18.2-10.9 22.7-20.5 4.3-9.4 4.7-19.8 1-29.4-23.4-61.2-38.4-138.2-44.8-228.8-0.2-3.5-1.9-6.8-4.6-9-2.4-2-5.3-3-8.4-3-0.4 0-0.9 0-1.4 0.1-8 0.8-15.7 1.3-22.9 1.3-9.8 0-18.9-0.8-27.2-2.3-0.8-0.3-1.6-0.4-2.4-0.4z" fill="#2919BC" p-id="2620"></path><path d="M423.4 868.6c-23.4-61.4-39.2-135.9-46.9-221.5-0.7-8-1.4-16.1-1.9-24.3-5.4-0.4-10.3-1.1-14.6-1.9 0.7 10.1 1.4 20.1 2.3 29.9 7.7 85.6 23.5 160.1 46.9 221.5 4 10.4 14.2 16.9 25.1 16.9 3.1 0 6.2-0.5 9.2-1.6 1.6-0.6 3.2-1.3 4.6-2.1-10.7-0.2-20.8-6.6-24.7-16.9z" fill="#82E8AB" p-id="2621"></path><path d="M361.9 894.1c-8.6-0.2-16.5-3.7-22.4-9.8-5.6-5.9-8.6-13.5-8.4-21.5 3.4-134.9-29.9-276-58.5-370.7-18.1-60-49.7-105-93.8-133.9-2.1-1.4-3.4-2.3-4.5-3.1-16.8-13.5-20.2-30.1-9.1-44.4 5.7-7.3 14.3-11.3 24.3-11.3 9.7 0 20.3 3.6 29.7 10.3 8.3 5.8 81.9 60 113.7 165.2 18.9 62.7 33.8 124.2 44 182.9 12.9 73.8 18.7 143.3 17 206.5-0.4 16.7-14.3 29.8-31.5 29.8h-0.5z" fill="#04A599" p-id="2622"></path><path d="M189.7 305.9c8.5 0 17.8 3.3 25.9 9.1 2.8 1.9 79.1 55.4 111.2 161.7 18.9 62.5 33.6 123.7 43.8 182.1 12.8 73.3 18.5 142.4 17 205.2-0.3 13.1-11.5 23.5-25 23.5h-0.6c-13.8-0.3-24.7-11.4-24.4-24.6 3.4-135.7-30.1-277.6-58.8-372.7-31.1-103.3-92.9-134.2-100.3-140.1-16-12.8-15.5-25.8-8-35.4 4.8-6.1 11.6-8.8 19.2-8.8m0-13c-12.1 0-22.6 4.9-29.5 13.8-6.3 8-8.8 17.2-7.4 26.4 1.5 9.9 7.4 19 17.5 27.1 1.3 1 2.8 2 5 3.4 15.9 10.4 64.5 42.2 91.1 130.3 28.5 94.2 61.7 234.6 58.3 368.6-0.2 9.7 3.4 19 10.1 26.1 7 7.4 16.6 11.6 26.9 11.8h0.9c9.9 0 19.2-3.7 26.3-10.4 7.3-6.8 11.4-16 11.6-25.8 1.6-63.7-4.2-133.6-17.1-207.8-10.3-58.9-25.2-120.7-44.2-183.6-32.4-107.2-107.7-162.6-116.1-168.6-10.4-7.2-22.3-11.3-33.4-11.3z" fill="#2919BC" p-id="2623"></path><path d="M370.7 658.9c-10.2-58.4-25-119.7-43.8-182.1C294.8 370.5 218.4 317 215.7 315c-15.5-10.9-35.2-13.2-45.2-0.3-1.4 1.8-2.5 3.7-3.4 5.7 10.7-5.9 25.9-2.8 38.5 6.1 2.8 1.9 79.1 55.4 111.2 161.7 18.9 62.5 33.6 123.7 43.8 182.1 12.8 73.3 18.5 142.4 17 205.2-0.1 3-0.7 5.9-1.8 8.5 7-4.1 11.7-11.5 11.9-19.9 1.6-62.8-4.1-131.9-17-205.2z" fill="#08C4B2" p-id="2624"></path><path d="M363.8 898c-0.7 0-1.3 0-2-0.1-9.6-0.5-18.4-4.7-24.8-11.8-6.1-6.8-9.1-15.4-8.6-24.4 3-52.2-2.1-119.7-13.9-185.1-0.6-3.4 1.6-6.7 4.9-7.5 8.7-2 17.2-3 25.4-3 14.7 0 27.9 3.4 38.1 9.7 1.6 1 2.6 2.6 3 4.4 12.5 68.9 16.6 126.1 13.1 185.4-0.7 12-7.6 22.5-18.5 28.2-5 2.8-10.8 4.2-16.7 4.2z" fill="#AEFFCF" p-id="2625"></path><path d="M344.9 672.7c13.1 0 25.1 2.8 34.6 8.7 13 71.8 16.3 127.3 13 183.8-0.6 10-6.5 18.4-15 22.9-4.1 2.2-8.8 3.4-13.8 3.4h-1.6c-15.9-0.9-28.1-14-27.2-29.3 3-52.2-1.8-119.1-14-186.6 8.2-1.9 16.3-2.9 24-2.9m0-13c-8.7 0-17.7 1.1-26.8 3.2-6.8 1.6-11.1 8.2-9.9 15C320 742.8 325 809.7 322 861.5c-0.6 10.7 3 21 10.2 29.1 7.5 8.4 17.9 13.3 29.3 13.9 0.8 0 1.6 0.1 2.3 0.1 6.9 0 13.8-1.7 19.8-4.9 12.9-6.8 21.1-19.4 22-33.6 3.4-59.8-0.6-117.4-13.2-186.9-0.7-3.6-2.8-6.8-5.9-8.7-11.3-7.1-25.7-10.8-41.6-10.8z" fill="#2919BC" p-id="2626"></path><path d="M376.1 885.4c-15.9-0.9-28.1-14-27.2-29.3 3-51.2-1.6-116.7-13.3-183-4.8 0.5-9.7 1.3-14.6 2.4 12.2 67.5 17 134.5 14 186.6-0.9 15.3 11.3 28.4 27.2 29.3 5.6 0.3 10.8-0.9 15.4-3.3 1.6-0.9 3.2-1.9 4.6-3-2 0.3-4 0.4-6.1 0.3z" fill="#82E8AB" p-id="2627"></path><path d="M358.3 282.1c0.7 2.5 1 5.1 0.9 7.9-0.2 3.7-5.8 92.5-27.3 207.3-12.7 67.6-28.3 130-46.4 185.6-22.9 70.2-49.8 129.7-80.2 176.8-4.7 7.3-12.9 11.4-21.3 11.4-2.5 0-5.1-0.4-7.6-1.1 1.6 5.6 5.4 10.7 10.9 14 4.1 2.4 8.7 3.6 13.1 3.6 8.4 0 16.5-4 21.3-11.4 30.4-47.2 57.4-106.7 80.2-176.8 18.1-55.5 33.7-118 46.4-185.6 21.5-114.8 27.1-203.6 27.3-207.3 0.8-11.3-6.6-21.2-17.3-24.4z" fill="#08C4B2" p-id="2628"></path><path d="M200.5 894.1c-5.8 0-11.5-1.6-16.5-4.5-7.3-4.3-12.3-11.2-14.2-19.3-1.9-7.9-0.4-16.1 4-23 50.4-78.3 91.5-197 119-343.3 20.9-111.6 26.5-199.9 26.5-200.8 1-16.1 14.8-28.8 31.4-28.8 0.6 0 1.2 0 1.8 0.1 8.6 0.5 16.4 4.2 22 10.5 5.4 6.1 8.1 13.8 7.6 21.8-0.2 3.7-5.8 92.9-27.4 208.1-12.7 67.9-28.4 130.6-46.6 186.4-23 70.7-50.3 130.7-80.9 178.4-5.8 9-15.8 14.4-26.7 14.4z" fill="#04A599" p-id="2629"></path><path d="M195.6 894.5c-6.3 0-12.6-1.5-18.1-4.3-8.9-4.5-15.4-12.3-17.8-21.3-2.3-8.6-0.8-17.4 4.2-25 29.8-45.5 56.5-102.9 79.3-170.4 0.6-1.7 1.9-3.2 3.6-3.9 0.8-0.4 1.7-0.5 2.6-0.5 0.9 0 1.9 0.2 2.7 0.6 15.1 7 36.6 19.6 53.2 40 1.4 1.8 1.8 4.2 1.1 6.3-22.6 62.5-49 117-78.5 161.9-6.5 10-18.1 16.2-30.9 16.5-0.6 0.1-1 0.1-1.4 0.1z" fill="#AEFFCF" p-id="2630"></path><path d="M379.5 280.6c-6.8-7.6-16.2-12.1-26.5-12.7-0.8 0.1-1.6 0-2.3 0-20.1 0-36.7 15.3-37.9 34.9-0.1 0.9-5.6 89.1-26.4 200-10.9 58-23.9 111.5-38.8 159.9-1.2 0.2-2.4 0.5-3.5 1-3.4 1.5-6 4.3-7.2 7.8-22.6 67-49 123.9-78.6 168.9-6 9.2-7.8 19.9-5 30.3 2.9 10.8 10.6 20 21.2 25.4 6.4 3.3 13.7 5 21.1 5h1.5c2.1-0.1 4.1-0.3 6.1-0.6 12.1-0.8 23-7.1 29.5-17.3 5.3-8.2 10.4-16.7 15.5-25.6 23.8-40.3 45.3-86.9 64.2-139.2 1.1-2.9 1-6.1 0-8.9 0.7-2 1.4-4.1 2-6.2 18.3-56.1 34-119.1 46.8-187.2 21.7-115.6 27.3-205.2 27.5-209 0.6-9.7-2.7-19.1-9.2-26.5zM241.4 843.1c-6.2 10.9-12.6 21.3-19.1 31.2-4.6 7-12.2 11.6-20.6 13.1-1.7 0.3-3.4 0.5-5.1 0.5h-1.1c-5.2 0-10.4-1.2-15.2-3.6-14.7-7.4-19.7-24-11.2-36.9 30.4-46.2 57.3-104.1 80.1-171.8 2.2 1 4.5 2.2 6.9 3.4 13.6 7.1 29 17.4 41.9 32.3 0.7 0.8 1.4 1.7 2.1 2.5-17.5 48.2-37.1 91.5-58.7 129.3z m134.3-536.8c-0.2 3.7-5.8 92.5-27.3 207.3-12.6 66.8-27.9 128.5-45.8 183.6-14-14.4-29.8-24.3-42.6-30.7 15.1-48.9 28.2-103 39.2-161.4 21-112 26.6-200.7 26.6-201.6 0.7-12.7 11.8-22.6 24.9-22.6h1.5c13.8 0.8 24.3 12.2 23.5 25.4z" fill="#2919BC" p-id="2631"></path><path d="M188.5 856.4c30.1-45.9 56.8-103.4 79.6-170.5-6.6-4.2-13-7.5-18.9-10.2-22.8 67.7-49.7 125.7-80 171.9-8.5 13-3.5 29.5 11.2 36.9 3.7 1.9 7.7 3 11.7 3.4-8.5-8.6-10.4-21.2-3.6-31.5z" fill="#82E8AB" p-id="2632"></path><path d="M492.4 893.9c-2.2 0-4.3-0.2-6.5-0.7-10.7-2.2-19.4-9.5-23.1-19.5-19.8-52.7-33.5-116.9-40.7-190.6-5.7-58.2-7.5-122.7-5.3-191.6 3.7-117.1 17.5-205.4 18.1-209.1 2.3-14.8 15.7-25.9 31.1-25.9 1.6 0 3.2 0.1 4.7 0.3 8.5 1.2 15.9 5.7 20.9 12.5 4.8 6.5 6.7 14.5 5.5 22.4-0.1 0.9-13.8 88.3-17.4 201.7C474.9 642 489.6 766.3 522 853c2.8 7.6 2.5 15.8-1 23.1-3.6 7.6-10 13.3-18.1 16.1-3.4 1.1-6.9 1.7-10.5 1.7z" fill="#04A599" p-id="2633"></path><path d="M466 262.9c1.2 0 2.5 0.1 3.8 0.3 13.6 2 23 14.3 21 27.4-0.1 0.9-13.9 88.8-17.5 202.5-4.8 149.4 10 274.6 42.7 362 4.7 12.5-2.1 26.3-15.1 30.8-2.8 1-5.7 1.4-8.5 1.4-1.8 0-3.5-0.2-5.2-0.5-8.2-1.7-15.3-7.3-18.4-15.4-19.5-52.2-33.1-115.8-40.3-189-5.7-58-7.5-122.1-5.3-190.8 3.7-116.6 17.5-204.6 18-208.3 2-11.9 12.6-20.4 24.8-20.4m0-13c-8.9 0-17.6 3.1-24.4 8.7-7 5.8-11.7 13.8-13.1 22.7-0.6 3.7-14.4 92.5-18.2 209.9-2.2 69.2-0.4 134 5.4 192.5 7.3 74.3 21.1 139 41.1 192.3 4.5 12.1 15 20.9 27.9 23.6 2.6 0.5 5.2 0.8 7.8 0.8 4.3 0 8.6-0.7 12.7-2.1 9.8-3.4 17.5-10.3 21.8-19.5 4.2-8.9 4.6-18.9 1.2-28.2-32.1-85.8-46.6-209.3-41.8-357.1 3.6-112.7 17.2-200.1 17.3-200.9 1.5-9.6-0.9-19.3-6.7-27.3-6-8.2-15-13.5-25.2-15-2-0.3-3.9-0.4-5.8-0.4z" fill="#2919BC" p-id="2634"></path><path d="M515.9 855.2c-32.7-87.4-47.4-212.6-42.7-362 3.6-113.7 17.4-201.7 17.5-202.5 2.1-13.1-7.3-25.4-21-27.4-4.1-0.6-8.1-0.2-11.7 1 11.3 3.7 18.6 14.7 16.7 26.4-0.1 0.9-13.9 88.8-17.5 202.5-4.8 149.4 10 274.6 42.7 362 4.7 12.5-2.1 26.3-15.1 30.8-0.2 0.1-0.3 0.1-0.5 0.2 0.9 0.3 1.9 0.6 2.8 0.7 4.4 0.9 9.1 0.7 13.6-0.9 13.1-4.6 19.9-18.3 15.2-30.8z" fill="#08C4B2" p-id="2635"></path><path d="M493.7 896.5c-2.4 0-4.9-0.2-7.3-0.7-12.1-2.5-21.8-10.6-26-21.9-21.1-56.4-31.6-101.3-40.2-171.5-0.2-1.7 0.3-3.5 1.3-4.8s2.6-2.2 4.4-2.4c9.4-1.1 16.7-6.3 24.4-11.9 8.6-6.2 17.5-12.6 29.7-13.7h0.6c3.2 0 6 2.4 6.4 5.7 8.3 67.8 21.7 126.8 39.8 175.2 3.2 8.5 2.8 17.7-1.1 25.9-4 8.5-11.2 14.9-20.3 18.1-3.7 1.3-7.7 2-11.7 2z" fill="#AEFFCF" p-id="2636"></path><path d="M480.6 676.1c8.3 68 21.8 127.5 40.2 176.7 5.4 14.4-2.4 30.4-17.4 35.6-3.2 1.1-6.5 1.6-9.8 1.6-2 0-4-0.2-6-0.6-9.4-1.9-17.7-8.4-21.2-17.8-19.9-53.3-31-97.6-39.8-170 22.2-2.5 32.9-23.6 54-25.5m0-13c-0.4 0-0.8 0-1.2 0.1-14.1 1.3-24.1 8.5-33 14.9-7.3 5.2-13.6 9.8-21.3 10.7-3.4 0.4-6.6 2.1-8.7 4.9-2.1 2.7-3.1 6.2-2.7 9.6 8.7 70.8 19.3 116 40.6 173 5 13.3 16.5 23 30.8 26 2.8 0.6 5.7 0.9 8.6 0.9 4.8 0 9.5-0.8 14-2.4 10.7-3.7 19.3-11.3 24-21.4 4.6-9.8 5.1-20.8 1.3-31-17.9-47.9-31.2-106.4-39.5-173.7-0.8-6.7-6.4-11.6-12.9-11.6z" fill="#2919BC" p-id="2637"></path><path d="M500 881.9c-9.4-1.9-17.7-8.4-21.2-17.8-19.6-52.4-30.6-96.1-39.4-166.3-3.9 1.8-8 3.2-12.7 3.8 8.9 72.4 19.9 116.7 39.8 170 3.5 9.4 11.7 15.8 21.2 17.8 5.1 1 10.5 0.8 15.7-1 4.5-1.5 8.3-4.1 11.3-7.2-4.9 1.5-10 1.7-14.7 0.7z" fill="#82E8AB" p-id="2638"></path><path d="M330.6 626.6c-28 0-65.7-1.8-86-10.3-18.6-7.8-28.8-18.2-30.4-31-2-16.2 11.1-27.1 12.6-28.2 2.3-1.8 5-2.7 7.9-2.7 4.2 0 8.1 2.1 10.5 5.6 4.1 5.9 3 13.9-2.6 18.4-1 0.8-2.4 2.7-2.6 3.7 0.3 0.7 2.7 4.7 14.5 9.7 12.4 5.2 41.3 8.3 77.2 8.3 14.7 0 30-0.5 45.3-1.6 68.2-4.6 97.9-16 101.6-20.8 0.5-0.6 1.5-2.1 1.3-3-0.4-2.4-4.4-6.3-6.9-7.8-1.3-0.8-5.4-4-3.4-11.4 1-3.6 5.2-12.8 12.4-12.8 1.4 0 2.9 0.4 4.1 1.1 2.8 1.7 16.6 10.8 19.3 26.2 1 5.9 0.7 14.9-6.6 24.3-7 9-22 15.7-47.3 21.2-19.9 4.3-45.1 7.6-72.9 9.5-15.8 1.1-32.4 1.6-48 1.6z" fill="#FFCD5F" p-id="2639"></path><path d="M482 549.1c0.3 0 0.5 0.1 0.7 0.2 1.4 0.9 14 8.8 16.2 21.7 0.8 4.6 0.5 11.7-5.3 19.3-5.9 7.6-20.1 13.8-43.6 18.9-19.6 4.3-44.5 7.5-71.9 9.4-14.6 1-31.1 1.6-47.5 1.6-33.2 0-66.2-2.6-83.5-9.8-16.3-6.8-25.2-15.5-26.5-25.8-1.6-12.7 8.9-21.4 10.1-22.3 1.2-0.9 2.5-1.4 3.8-1.4 2 0 3.9 1 5.2 2.8 2.1 3 1.5 7.3-1.3 9.6-1.5 1.2-5.6 5.5-5.1 9.6 0.3 2.3 2.7 8.2 18.4 14.8 13.6 5.7 43.7 8.8 79.7 8.8 14.5 0 30-0.5 45.7-1.6 64-4.3 100-15.1 106.3-23.3 3.3-4.2 2.8-7.1 2.6-8.1-1-5.7-7.7-10.9-9.9-12.3-2.7-1.7 2.6-12.1 5.9-12.1m0-13c-10.9 0-17 11.5-18.7 17.6-2.6 9.4 1.5 15.8 6.3 18.7 0.7 0.4 1.6 1.2 2.4 2-2.9 1.6-10.1 4.8-25.5 8.3-18.6 4.2-42.8 7.4-70 9.3-15.2 1-30.3 1.5-44.9 1.5-41.3 0-65.7-4-74.7-7.8-3.9-1.6-6.5-3.1-8.2-4.2 6.4-6.8 7.3-17.4 1.8-25.2-3.6-5.2-9.6-8.3-15.8-8.3-4.3 0-8.5 1.5-11.9 4.1-2.9 2.3-17.4 14.8-15 34.1 1.9 15.3 13.5 27.4 34.4 36.2 21.3 8.9 59.9 10.8 88.5 10.8 15.7 0 32.5-0.6 48.4-1.6 28-1.9 53.6-5.2 73.8-9.6 27.3-5.9 43-13.2 51.1-23.6 6.8-8.8 9.6-19.3 7.9-29.4-3.1-18.2-19.1-28.7-22.3-30.6-2.4-1.6-5-2.3-7.6-2.3z" fill="#2919BC" p-id="2640"></path><path d="M484.3 411.3s-3.8 52.8-5.4 103.8c-1.2 36.6 0.5 60 0.5 60s-8.2 7.2-23.4 11.6" fill="#08C4B2" p-id="2641"></path><path d="M455.9 593.2c-2.8 0-5.4-1.9-6.2-4.7-1-3.4 1-7.1 4.4-8 9-2.6 15.3-6.3 18.5-8.5-0.4-7.9-1.2-28.4-0.3-57.1 1.6-50.5 5.4-103.6 5.5-104.1 0.3-3.6 3.4-6.3 7-6s6.3 3.4 6 7c0 0.5-3.8 53.3-5.4 103.6-1.1 35.8 0.5 59.1 0.5 59.4 0.1 2-0.7 4-2.2 5.3-0.4 0.3-9.5 8.2-25.9 12.9-0.7 0.1-1.3 0.2-1.9 0.2z" fill="#2919BC" p-id="2642"></path><path d="M237.9 511.6l1.3 68.4s8.4 9.3 24.5 14.2" fill="#04A599" p-id="2643"></path><path d="M263.8 600.6c-0.6 0-1.3-0.1-1.9-0.3-17.6-5.4-27.1-15.6-27.5-16-1.1-1.2-1.7-2.7-1.7-4.2l-1.3-68.4c-0.1-3.6 2.8-6.6 6.4-6.6 3.6 0 6.6 2.8 6.6 6.4l1.3 65.7c2.9 2.5 9.7 7.7 20 10.8 3.4 1.1 5.4 4.7 4.3 8.1-0.8 2.7-3.4 4.5-6.2 4.5z" fill="#2919BC" p-id="2644"></path><path d="M360.6 327.1c-0.7 8.3-1.6 16.7-2.7 25-0.8 6.4 9.2 6.3 10 0 1.1-8.3 2-16.6 2.7-25 0.5-6.4-9.5-6.4-10 0z" fill="#FFFFFF" p-id="2645"></path><path d="M361.6 375.1c6.4 0 6.4-10 0-10s-6.5 10 0 10z" fill="#FFFFFF" p-id="2646"></path><path d="M421.7 229.7c1.2 2.4 1.2 5.5 0.1 7.9s-0.7 5.4 1.8 6.8c2.2 1.3 5.7 0.7 6.8-1.8 2.8-6 2.8-12.1-0.1-18-1.2-2.4-4.7-3.1-6.8-1.8-2.5 1.5-2.9 4.4-1.8 6.9z" fill="#FFFFFF" p-id="2647"></path><path d="M476.3 283.9c0.9 3.2 1.1 6.4 0.8 9.7-0.2 2.7 2.5 5 5 5 2.9 0 4.8-2.3 5-5 0.4-4.1-0.1-8.3-1.1-12.3-1.8-6.2-11.4-3.6-9.7 2.6z" fill="#FFFFFF" p-id="2648"></path><path d="M247.5 267c4.5 6.3 7.5 13.4 8.3 21.1 0.7 6.3 10.7 6.4 10 0-1-9.5-4.1-18.3-9.7-26.2-3.7-5.2-12.4-0.2-8.6 5.1z" fill="#FFFFFF" p-id="2649"></path><path d="M142.6 375.1c6.4 0 6.4-10 0-10s-6.5 10 0 10z" fill="#FFFFFF" p-id="2650"></path><path d="M659 703.8c7.9-0.5 12.9-5.9 12.9-12.2 0-6.8-5.4-12.3-14.1-12.3h-10c8.6 0 14.1-5.6 14.1-12.3 0-6.8-5.4-12.3-14.1-12.3H411l3.7 98.1h189.5l-0.1 0.1h43.7c8.6 0 14.1-5.6 14.1-12.3 0-6.3-4.6-11.5-12.2-12.2h8.1c8.6 0 14.1-5.6 14.1-12.3 0-6.5-4.9-11.8-12.9-12.3z" fill="#AEFFCF" p-id="2651"></path><path d="M678.5 691.5c0-7.7-4.6-14.1-11.6-17 1-2.3 1.6-4.8 1.6-7.5 0-10.7-8.8-18.8-20.6-18.8H414c-3.6 0-6.5 2.9-6.5 6.5s2.9 6.5 6.5 6.5h233.9c4.5 0 7.6 2.3 7.6 5.8 0 3.1-2.3 5.2-6 5.7h-20.3c-0.4 0-0.7 0-1.1 0.1h-8.9c-3.6 0-6.5 2.9-6.5 6.5s2.9 6.5 6.5 6.5h28.7c0.8 0 1.5 0 2.2-0.1h7.8c4.5 0 7.6 2.3 7.6 5.8 0 3.2-2.5 5.4-6.5 5.7h-29.8c-3.6 0-6.5 2.9-6.5 6.5s2.9 6.5 6.5 6.5H659c3.9 0.3 6.5 2.5 6.5 5.7 0 3.5-3 5.8-7.6 5.8h-7.8c-0.7-0.1-1.5-0.1-2.2-0.1h-28.7c-3.6 0-6.5 2.9-6.5 6.5s2.9 6.5 6.5 6.5h8.9c0.4 0.1 0.7 0.1 1.1 0.1h20.3c3.6 0.5 6 2.6 6 5.7 0 3.5-3 5.8-7.6 5.8H415.7c-3.6 0-6.5 2.9-6.5 6.5s2.9 6.5 6.5 6.5h232.2c11.8 0 20.6-8.1 20.6-18.8 0-2.7-0.6-5.2-1.6-7.5 7-2.9 11.6-9.3 11.6-17 0-4.8-1.8-9-4.7-12.3 2.9-3.1 4.7-7.3 4.7-12.1z" fill="#2919BC" p-id="2652"></path><path d="M405.9 605.5c-7.9-0.5-12.9-5.9-12.9-12.2 0-6.8 5.4-12.3 14.1-12.3h10c-8.6 0-14.1-5.6-14.1-12.3 0-6.8 5.4-12.3 14.1-12.3h276.8l-3.7 98.1H460.7l0.1 0.1h-43.7c-8.6 0-14.1-5.6-14.1-12.3 0-6.3 4.6-11.5 12.2-12.2h-8.1c-8.6 0-14.1-5.6-14.1-12.3 0-6.5 4.9-11.8 12.9-12.3z" fill="#FF8ABF" p-id="2653"></path><path d="M386.4 593.1c0-7.7 4.6-14.1 11.6-17-1-2.3-1.6-4.8-1.6-7.5 0-10.7 8.8-18.8 20.6-18.8h273.9c3.6 0 6.5 2.9 6.5 6.5s-2.9 6.5-6.5 6.5H417c-4.5 0-7.6 2.3-7.6 5.8 0 3.1 2.3 5.2 6 5.7h20.3c0.4 0 0.7 0 1.1 0.1h8.9c3.6 0 6.5 2.9 6.5 6.5s-2.9 6.5-6.5 6.5H417c-0.8 0-1.5 0-2.2-0.1H407c-4.5 0-7.6 2.3-7.6 5.8 0 3.2 2.5 5.4 6.5 5.7h29.8c3.6 0 6.5 2.9 6.5 6.5s-2.9 6.5-6.5 6.5h-29.8c-3.9 0.3-6.5 2.5-6.5 5.7 0 3.5 3 5.8 7.6 5.8h7.8c0.7-0.1 1.5-0.1 2.2-0.1h28.7c3.6 0 6.5 2.9 6.5 6.5s-2.9 6.5-6.5 6.5h-8.9c-0.4 0.1-0.7 0.1-1.1 0.1h-20.3c-3.6 0.5-6 2.6-6 5.7 0 3.5 3 5.8 7.6 5.8h272.2c3.6 0 6.5 2.9 6.5 6.5s-2.9 6.5-6.5 6.5H417c-11.8 0-20.6-8.1-20.6-18.8 0-2.7 0.6-5.2 1.6-7.5-7-2.9-11.6-9.3-11.6-17 0-4.8 1.8-9 4.7-12.3-3-3-4.7-7.3-4.7-12.1z" fill="#2919BC" p-id="2654"></path><path d="M543.2 608.2a33.1 25.2 0 1 0 66.2 0 33.1 25.2 0 1 0-66.2 0Z" fill="#EA4798" p-id="2655"></path><path d="M289.2 520.4m-31.5 0a31.5 31.5 0 1 0 63 0 31.5 31.5 0 1 0-63 0Z" fill="#FF398A" p-id="2656"></path><path d="M468 520.4m-31.5 0a31.5 31.5 0 1 0 63 0 31.5 31.5 0 1 0-63 0Z" fill="#FF398A" p-id="2657"></path><path d="M462.4 497.3c-18.7 0-34-15.2-34-34s15.2-34 34-34 34 15.2 34 34-15.2 34-34 34z" fill="#FFFFFF" p-id="2658"></path><path d="M462.4 435.9c15.2 0 27.5 12.3 27.5 27.5s-12.3 27.5-27.5 27.5-27.5-12.3-27.5-27.5c0.1-15.2 12.4-27.5 27.5-27.5m0-13c-22.3 0-40.5 18.2-40.5 40.5s18.2 40.5 40.5 40.5 40.5-18.2 40.5-40.5-18.1-40.5-40.5-40.5z" fill="#2919BC" p-id="2659"></path><path d="M468 461.9m-16.3 0a16.3 16.3 0 1 0 32.6 0 16.3 16.3 0 1 0-32.6 0Z" fill="#2919BC" p-id="2660"></path><path d="M295.8 464.1m-34 0a34 34 0 1 0 68 0 34 34 0 1 0-68 0Z" fill="#FFFFFF" p-id="2661"></path><path d="M295.8 436.7c15.2 0 27.5 12.3 27.5 27.5s-12.3 27.5-27.5 27.5-27.5-12.3-27.5-27.5 12.3-27.5 27.5-27.5m0-13c-22.3 0-40.5 18.2-40.5 40.5s18.2 40.5 40.5 40.5 40.5-18.2 40.5-40.5-18.2-40.5-40.5-40.5z" fill="#2919BC" p-id="2662"></path><path d="M301.5 463.4m-16.3 0a16.3 16.3 0 1 0 32.6 0 16.3 16.3 0 1 0-32.6 0Z" fill="#2919BC" p-id="2663"></path><path d="M474.5 464.8c7.4 0 7.4-11.5 0-11.5s-7.4 11.5 0 11.5z" fill="#FFFFFF" p-id="2664"></path><path d="M309 466.3c7.4 0 7.4-11.5 0-11.5s-7.4 11.5 0 11.5z" fill="#FFFFFF" p-id="2665"></path><path d="M756.8 401.3m-31.5 0a31.5 31.5 0 1 0 63 0 31.5 31.5 0 1 0-63 0Z" fill="#FF398A" p-id="2666"></path><path d="M520.6 401.3m-31.5 0a31.5 31.5 0 1 0 63 0 31.5 31.5 0 1 0-63 0Z" fill="#FF398A" p-id="2667"></path><path d="M542.4 353m-34 0a34 34 0 1 0 68 0 34 34 0 1 0-68 0Z" fill="#FFFFFF" p-id="2668"></path><path d="M542.4 325.5c15.2 0 27.5 12.3 27.5 27.5s-12.3 27.5-27.5 27.5S515 368.2 515 353s12.3-27.5 27.4-27.5m0-13c-22.3 0-40.5 18.2-40.5 40.5s18.2 40.5 40.5 40.5 40.5-18.2 40.5-40.5-18.2-40.5-40.5-40.5z" fill="#2919BC" p-id="2669"></path><path d="M536.9 351.5m-16.3 0a16.3 16.3 0 1 0 32.6 0 16.3 16.3 0 1 0-32.6 0Z" fill="#2919BC" p-id="2670"></path><path d="M732.4 353m-34 0a34 34 0 1 0 68 0 34 34 0 1 0-68 0Z" fill="#FFFFFF" p-id="2671"></path><path d="M732.4 325.5c15.2 0 27.5 12.3 27.5 27.5s-12.3 27.5-27.5 27.5-27.5-12.3-27.5-27.5 12.3-27.5 27.5-27.5m0-13c-22.3 0-40.5 18.2-40.5 40.5s18.2 40.5 40.5 40.5 40.5-18.2 40.5-40.5-18.2-40.5-40.5-40.5z" fill="#2919BC" p-id="2672"></path><path d="M726.9 351.5m-16.3 0a16.3 16.3 0 1 0 32.6 0 16.3 16.3 0 1 0-32.6 0Z" fill="#2919BC" p-id="2673"></path><path d="M530.4 355.7c7.4 0 7.4-11.5 0-11.5s-7.4 11.5 0 11.5z" fill="#FFFFFF" p-id="2674"></path><path d="M719.6 355.7c7.4 0 7.4-11.5 0-11.5s-7.4 11.5 0 11.5z" fill="#FFFFFF" p-id="2675"></path><path d="M656.7 447.7h-45.2c-16.1 0-29.2-13.1-29.2-29.2s13.1-29.2 29.2-29.2h45.2c16.1 0 29.2 13.1 29.2 29.2 0 16-13.2 29.2-29.2 29.2z" fill="#FF398A" p-id="2676"></path><path d="M656.7 455.2h-45.2c-20.2 0-36.7-16.5-36.7-36.7s16.5-36.7 36.7-36.7h45.2c20.2 0 36.7 16.5 36.7 36.7s-16.5 36.7-36.7 36.7z m-45.3-58.4c-12 0-21.7 9.7-21.7 21.7s9.7 21.7 21.7 21.7h45.2c12 0 21.7-9.7 21.7-21.7s-9.7-21.7-21.7-21.7h-45.2z" fill="#2919BC" p-id="2677"></path><path d="M652.1 428.6c-5.5 0-10.1-4.5-10.1-10.1s4.5-10.1 10.1-10.1 10.1 4.5 10.1 10.1-4.5 10.1-10.1 10.1zM615.7 428.6c-5.5 0-10.1-4.5-10.1-10.1s4.5-10.1 10.1-10.1 10.1 4.5 10.1 10.1-4.5 10.1-10.1 10.1z" fill="#2919BC" p-id="2678"></path><path d="M136 605.5m-8.3 0a8.3 8.3 0 1 0 16.6 0 8.3 8.3 0 1 0-16.6 0Z" fill="#2919BC" p-id="2679"></path><path d="M310.9 192.8m-8.3 0a8.3 8.3 0 1 0 16.6 0 8.3 8.3 0 1 0-16.6 0Z" fill="#2919BC" p-id="2680"></path><path d="M831 184.5m-8.3 0a8.3 8.3 0 1 0 16.6 0 8.3 8.3 0 1 0-16.6 0Z" fill="#2919BC" p-id="2681"></path><path d="M902.8 447.1m-8.3 0a8.3 8.3 0 1 0 16.6 0 8.3 8.3 0 1 0-16.6 0Z" fill="#2919BC" p-id="2682"></path><path d="M572.7 162.3c-3.7 0-7.1-1.4-9.7-4-2.6-2.6-4-6-4-9.7s1.4-7.1 4-9.7l7.1-7.1c2.6-2.6 6-4 9.7-4s7.1 1.4 9.7 4c2.6 2.6 4 6 4 9.7s-1.4 7.1-4 9.7l-7.1 7.1c-2.5 2.6-6 4-9.7 4z" fill="#15CE99" p-id="2683"></path><path d="M579.9 134.2c1.9 0 3.7 0.7 5.1 2.1 2.8 2.8 2.8 7.4 0 10.2l-7.1 7.1c-1.4 1.4-3.3 2.1-5.1 2.1-1.9 0-3.7-0.7-5.1-2.1-2.8-2.8-2.8-7.4 0-10.2l7.1-7.1c1.3-1.3 3.2-2.1 5.1-2.1m0-13c-5.4 0-10.5 2.1-14.3 5.9l-7.1 7.1c-3.8 3.8-5.9 8.9-5.9 14.3s2.1 10.5 5.9 14.3c3.8 3.8 8.9 5.9 14.3 5.9s10.5-2.1 14.3-5.9l7.1-7.1c3.8-3.8 5.9-8.9 5.9-14.3s-2.1-10.5-5.9-14.3c-3.9-3.7-8.9-5.9-14.3-5.9z" fill="#2919BC" p-id="2684"></path><path d="M184.9 539.2c-8.3 0-14.8-7.9-19.4-23.4-0.9-2.9-0.3-5.9 1.5-8.3s4.6-3.8 7.5-3.8c0.9 0 1.8 0.1 2.7 0.4 13.7 4.1 21.2 9.4 23 16.4 0.8 3.3 0.7 8.3-4.6 13.6-3.3 3.5-6.9 5.1-10.7 5.1z" fill="#FFFFFF" p-id="2685"></path><path d="M174.5 510.3c0.3 0 0.6 0 0.8 0.1 8.8 2.6 25.6 9.2 15.6 19.2-2.2 2.2-4.2 3.1-6 3.1-6.7 0-11.1-11.8-13.2-18.7-0.5-1.9 1-3.7 2.8-3.7m0-13c-5 0-9.7 2.4-12.7 6.4s-3.9 9.2-2.5 14c1.7 5.8 3.8 10.8 6.1 14.8 6.3 11 14.1 13.3 19.6 13.3 3.8 0 9.5-1.2 15.2-6.9 7.9-7.9 7.3-15.8 6.3-19.8-2.4-9.4-11.4-16.3-27.4-21.1-1.5-0.5-3.1-0.7-4.6-0.7z" fill="#2919BC" p-id="2686"></path><path d="M893.7 593c-8.5 0-15.2-8.3-19.7-24.5-0.8-2.7-0.2-5.5 1.4-7.7 1.7-2.2 4.3-3.5 7-3.5 0.8 0 1.6 0.1 2.4 0.3 14.2 4 22.3 9.6 24.1 16.7 0.9 3.3 0.8 8.4-4.6 13.7-3.3 3.3-6.8 5-10.6 5z" fill="#FFFFFF" p-id="2687"></path><path d="M882.4 563.8c0.2 0 0.4 0 0.6 0.1 8.4 2.4 27.1 9.1 16.7 19.5-2.2 2.2-4.2 3.1-6 3.1-7 0-11.6-13.1-13.5-19.8-0.4-1.5 0.8-2.9 2.2-2.9m0-13c-4.8 0-9.3 2.3-12.2 6.1-2.9 3.9-3.8 8.7-2.5 13.4 1.1 4 3.1 10 5.9 15.1 6.4 11.7 14.5 14.1 20.1 14.1 3.8 0 9.5-1.2 15.2-6.9 7.9-7.9 7.3-15.9 6.3-19.9-2.5-9.6-11.9-16.5-28.6-21.3-1.4-0.4-2.8-0.6-4.2-0.6z" fill="#2919BC" p-id="2688"></path><path d="M152 232.9c-7.5 0-13.9-5.9-14.5-13.4-0.3-3.9 0.9-7.6 3.4-10.6s6-4.7 9.9-5h1.1c7.5 0 13.9 5.9 14.5 13.4 0.6 8-5.4 15-13.3 15.6H152z" fill="#FFC55F" p-id="2689"></path><path d="M152 210.3c4.1 0 7.7 3.2 8 7.4 0.3 4.4-3 8.3-7.4 8.6h-0.6c-4.1 0-7.7-3.2-8-7.4-0.3-4.4 3-8.3 7.4-8.6 0.2 0.1 0.4 0 0.6 0m0-13c-0.5 0-1.1 0-1.7 0.1-5.6 0.4-10.7 3-14.3 7.3s-5.4 9.7-5 15.3c0.9 10.9 10.1 19.4 21 19.4 0.5 0 1.1 0 1.7-0.1 11.6-0.9 20.2-11.1 19.3-22.6-0.9-10.8-10.1-19.4-21-19.4z" fill="#2919BC" p-id="2690"></path><path d="M148.6 734.7c-6.9 0-12.6-5.6-12.6-12.6s5.6-12.6 12.6-12.6 12.6 5.6 12.6 12.6-5.6 12.6-12.6 12.6z" fill="#FFC55F" p-id="2691"></path><path d="M148.6 716.1c3.4 0 6.1 2.7 6.1 6.1s-2.7 6.1-6.1 6.1-6.1-2.7-6.1-6.1 2.8-6.1 6.1-6.1m0-13c-10.5 0-19.1 8.6-19.1 19.1s8.6 19.1 19.1 19.1 19.1-8.6 19.1-19.1-8.5-19.1-19.1-19.1z" fill="#2919BC" p-id="2692"></path></svg>